<?xml version="1.0" encoding="UTF-8"?>
<!DOCTYPE svg PUBLIC "-//W3C//DTD SVG 1.1//EN" "http://www.w3.org/Graphics/SVG/1.1/DTD/svg11.dtd">
<!-- Creator: CorelDRAW 2021 (64-Bit) -->
<svg xmlns="http://www.w3.org/2000/svg" xml:space="preserve" width="214.5mm" height="286mm" version="1.1" style="shape-rendering:geometricPrecision; text-rendering:geometricPrecision; image-rendering:optimizeQuality; fill-rule:evenodd; clip-rule:evenodd"
viewBox="0 0 7606.72 10142.3"
 xmlns:xlink="http://www.w3.org/1999/xlink"
 xmlns:xodm="http://www.corel.com/coreldraw/odm/2003">
 <defs>
  <style type="text/css">
   <![CDATA[
    .fil0 {fill:#00CCFF}
    .fil4 {fill:#FEFEFE;fill-rule:nonzero}
    .fil3 {fill:white;fill-opacity:0.501961}
    .fil2 {fill:#FEFEFE;fill-rule:nonzero;fill-opacity:0.501961}
    .fil1 {fill:white;fill-rule:nonzero;fill-opacity:0.501961}
   ]]>
  </style>
     <clipPath id="id0">
      <path d="M-0 0l7606.72 0 0 10142.3 -7606.72 0 0 -10142.3z"/>
     </clipPath>
     <clipPath id="id1">
      <path d="M-0 0l0 10142.3 7606.72 0 0 -10142.3 -7606.72 0z"/>
     </clipPath>
     <clipPath id="id2">
      <path d="M-0 0l7606.72 0 0 10142.3 -7606.72 0 0 -10142.3z"/>
     </clipPath>
     <mask id="id3">
  <linearGradient id="id4" gradientUnits="userSpaceOnUse" x1="4473.35" y1="17081.98" x2="4473.36" y2="6095.97">
   <stop offset="0" style="stop-opacity:1; stop-color:white"/>
   <stop offset="0.109804" style="stop-opacity:0.501961; stop-color:white"/>
   <stop offset="1" style="stop-opacity:0; stop-color:white"/>
  </linearGradient>
      <rect style="fill:url(#id4)" x="-3.55" y="885.68" width="7613.81" height="9260.16"/>
     </mask>
    <clipPath id="id5">
     <path d="M2287.86 6874.13l-2287.86 0 0 -846.65c30.77,-12.39 64.15,-20.65 98.84,-23.4 9.17,-0.69 17.67,-1.04 26.84,-1.04 78.55,0 151.87,27.88 209.48,74.34 -1.96,-12.39 -3.93,-24.78 -5.24,-37.86 -14.4,-184.47 123.07,-345.54 307.01,-360.34 9.16,-0.69 18.33,-1.04 26.84,-1.04 166.27,0 307.67,122.87 331.23,288.07 41.24,-16.17 85.76,-26.85 132.89,-30.29 12.44,-1.03 24.88,-1.72 37.31,-1.72 242.21,0 447.1,186.2 466.74,431.59 1.96,22.37 1.31,44.4 0,66.42 46.48,-20.31 96.88,-33.73 149.9,-37.86 13.09,-1.03 25.53,-1.72 37.97,-1.72 242.21,0 447.1,186.19 466.74,431.93 1.31,16.52 1.31,33.04 1.31,49.56l0 0z"/>
    </clipPath>
 </defs>
 <g id="Layer_x0020_1">
  <metadata id="CorelCorpID_0Corel-Layer"/>
  <g id="_1997729141056">
   <g>
    <g style="clip-path:url(#id0)">
    </g>
    <g style="clip-path:url(#id1)">
     <image x="-0" y="-2.88" width="7611.02" height="10174.01" xlink:href="cloud_2_background_Images\cloud_2_background_ImgID1.jpg"/>
    </g>
    <g style="clip-path:url(#id2)">
    </g>
    <polygon class="fil0" style="mask:url(#id3)" points="-0,889.23 7606.72,889.23 7606.72,10142.3 -0,10142.3 "/>
   </g>
   <path class="fil1" d="M7606.72 9633.74c-39.53,31.03 -64.14,74.67 -64.14,123 0,7.46 0.79,14.76 1.91,21.96 -52.45,-31.34 -116.9,-50.05 -186.82,-50.05 -13.28,0 -26.29,0.89 -39.13,2.18 1.32,-7.81 2.26,-15.72 2.26,-23.83 0,-83.02 -72.64,-152.12 -168.76,-167.32 0.87,-6.32 1.41,-12.72 1.41,-19.23 0,-94.17 -93.39,-170.52 -208.59,-170.52 -25.77,0 -50.34,4 -73.15,11 6.44,-20.61 10.23,-42.07 10.23,-64.32 0,-143.32 -142.13,-259.49 -317.43,-259.49 -54.63,0 -106.02,11.29 -150.91,31.16 15.97,-33.32 24.83,-69.54 24.83,-107.48 0,-162.85 -161.51,-294.88 -360.73,-294.88 -120.23,0 -226.63,48.12 -292.19,122.04 -30.03,-64.05 -105.74,-109.6 -194.64,-109.6 -115.21,0 -208.61,76.35 -208.61,170.52 0,12.84 1.87,25.28 5.17,37.31 -29.91,-13.53 -64.24,-21.28 -100.83,-21.28 -115.21,0 -208.61,76.35 -208.61,170.52 0,5.76 0.38,11.44 1.06,17.04 -56.73,-43.3 -132.66,-70.01 -216.39,-70.01 -175.32,0 -317.45,116.19 -317.45,259.5 0,10.21 0.91,20.24 2.33,30.15 -21.13,-5.88 -43.69,-9.23 -67.26,-9.23 -82.11,0 -152.95,38.88 -186.97,95.27 -0.43,-162.56 -161.76,-294.25 -360.71,-294.25 -69.3,0 -134,16.01 -188.96,43.69 1.18,-7.34 2.01,-14.79 2.01,-22.41 0,-94.16 -93.39,-170.52 -208.59,-170.52 -8.79,0 -17.41,0.6 -25.92,1.46 4.09,-17.77 6.31,-36.06 6.31,-54.8 0,-162.85 -161.51,-294.89 -360.73,-294.89 -7.37,0 -14.67,0.25 -21.92,0.6 -29.99,-117.84 -157.71,-206.4 -310.74,-206.4 -160,0 -291.97,96.86 -313.88,222.7 -30.47,-14.25 -65.67,-22.51 -103.31,-22.51 -115.21,0 -208.61,76.35 -208.61,170.52 0,1.74 0.26,3.43 0.32,5.16 -14.39,-1.63 -28.97,-2.77 -43.91,-2.77 -168.54,0 -306.02,107.47 -316.42,243.1 -37.55,-45.02 -100.76,-74.61 -172.44,-74.61 -115.21,0 -208.61,76.35 -208.61,170.52 0,21.16 4.94,41.32 13.55,60.01 -41.68,-16.43 -88.23,-25.92 -137.6,-25.92 -40.92,0 -79.89,6.55 -115.81,18.08 -30.81,-116.93 -157.9,-204.63 -310.16,-204.63 -175.32,0 -317.43,116.19 -317.43,259.5 0,3.42 0.46,6.76 0.62,10.15 -16.44,-2.15 -33.17,-3.56 -50.36,-3.56 -175.32,0 -317.44,116.17 -317.44,259.49 0,100.45 69.95,187.38 172.06,230.52 -74.96,11.56 -135.64,55.85 -159.12,114.04 -43.85,-75.77 -131.03,-131.51 -235.51,-145.42l0 497.32 7606.72 0 0 -508.55z"/>
   <path class="fil2" d="M2571.56 3595.37c14,-21.17 22.18,-46.5 22.18,-73.77 0,-74.1 -60.06,-134.15 -134.15,-134.15 -8.92,0 -17.61,0.91 -26.06,2.58 8.03,-21.73 12.65,-45.13 12.65,-69.64 0,-111.13 -90.09,-201.22 -201.21,-201.22 -28.84,0 -56.2,6.17 -80.99,17.09 -5,-69.52 -62.85,-124.4 -133.64,-124.4 -12.35,0 -24.22,1.8 -35.57,4.92 5.64,-18.55 8.73,-38.19 8.73,-58.57 0,-111.13 -90.1,-201.23 -201.23,-201.23 -91.23,0 -168.17,60.76 -192.84,143.98 -21.5,-14.66 -47.46,-23.24 -75.44,-23.24 -74.08,0 -134.16,60.06 -134.16,134.15 0,4.54 0.23,9.02 0.69,13.45l-0.69 -0.04c-111.13,0 -201.21,90.09 -201.21,201.22 0,15.99 2.05,31.47 5.58,46.37 -26.12,-12.4 -55.23,-19.55 -86.07,-19.55 -111.13,0 -201.22,90.1 -201.22,201.23 0,54.87 22.03,104.55 57.63,140.84l1597.02 0z"/>
   <g style="clip-path:url(#id5)">
    <image x="-11.13" y="5670.93" width="2310.11" height="1214.56" xlink:href="cloud_2_background_Images\cloud_2_background_ImgID2.jpg"/>
   </g>
   <path class="fil3" d="M7606.72 5072.89l-1696.54 0c-102.19,0 -185.17,-82.83 -185.17,-185.1 0,-102.24 82.98,-185.1 185.17,-185.1 12.3,0 24.2,1.26 36.12,3.57 -11.14,-30 -17.67,-62.27 -17.67,-96.12 0,-153.33 124.47,-277.66 277.76,-277.66 39.96,0 77.6,8.5 111.8,23.56 6.92,-95.93 86.83,-171.7 184.4,-171.7 16.9,0 33.42,2.49 49.18,6.84 -8.07,-25.62 -12.29,-52.75 -12.29,-80.87 0,-153.37 124.47,-277.69 277.76,-277.69 126.01,0 232.04,83.83 266.23,198.7 29.59,-20.21 65.31,-32.08 104.11,-32.08 102.19,0 185.18,82.87 185.18,185.1 0,6.26 -0.38,12.49 -1.16,18.6l1.16 -0.07c97.97,0 184.41,51.05 233.96,128.08l0 741.94z"/>
   <path class="fil3" d="M5839.01 2563.55l-1342.77 0c-5.28,-8.07 -9.72,-16.73 -13.29,-25.81l0 -103.47c20.72,-53 72.31,-90.56 132.68,-90.56 23.37,0 45.43,5.75 64.91,15.76 21.16,-41.15 55.53,-74.72 98.04,-94.62 -4.04,-13.76 -6.81,-28.11 -7.99,-42.99 -9.19,-115.7 77.19,-216.99 192.91,-226.18 5.58,-0.42 11.1,-0.64 16.62,-0.64 28.56,0 55.94,5.86 81.05,16.37 -6.22,-82.39 55.35,-154.4 137.81,-160.93 4.07,-0.33 8.07,-0.51 12.05,-0.51 75.39,0 139.52,56.57 148.65,132.06 24.89,-13.36 52.81,-22.02 82.77,-24.38 5.67,-0.45 11.27,-0.67 16.88,-0.67 108.52,0 200.56,83.49 209.28,193.55 0.39,4.54 0.34,9 0.42,13.48 8.01,-1.54 16.17,-2.75 24.52,-3.39 5.97,-0.48 11.94,-0.7 17.86,-0.7 114.71,0 212,88.26 221.24,204.6 6.42,81.09 -31.64,155.29 -93.65,199.04z"/>
   <polygon class="fil4" points="6272.44,7098.8 6307.55,7237.37 6446.14,7272.51 6307.55,7307.6 6272.44,7446.16 6237.36,7307.6 6098.75,7272.51 6237.36,7237.37 "/>
   <polygon class="fil4" points="4175.4,4236.92 4210.51,4375.48 4349.1,4410.63 4210.51,4445.71 4175.4,4584.28 4140.32,4445.71 4001.71,4410.63 4140.32,4375.48 "/>
   <polygon class="fil4" points="2724.58,1669.3 2759.69,1807.86 2898.27,1843.01 2759.69,1878.09 2724.58,2016.66 2689.5,1878.09 2550.89,1843.01 2689.5,1807.86 "/>
   <polygon class="fil4" points="6618.57,851.09 6637.9,927.37 6714.19,946.72 6637.9,966.03 6618.57,1042.31 6599.26,966.03 6522.95,946.72 6599.26,927.37 "/>
   <polygon class="fil4" points="1795.18,7889.96 1814.5,7966.24 1890.8,7985.59 1814.5,8004.9 1795.18,8081.18 1775.87,8004.9 1699.56,7985.59 1775.87,7966.24 "/>
   <polygon class="fil4" points="3041.02,6008.09 3060.34,6084.37 3136.64,6103.72 3060.34,6123.03 3041.02,6199.31 3021.71,6123.03 2945.4,6103.72 3021.71,6084.37 "/>
   <polygon class="fil4" points="629.88,4422.83 664.99,4561.39 803.58,4596.54 664.99,4631.62 629.88,4770.18 594.81,4631.62 456.2,4596.54 594.81,4561.39 "/>
   <polygon class="fil4" points="939.28,2344.38 958.61,2420.66 1034.9,2440.01 958.61,2459.32 939.28,2535.6 919.97,2459.32 843.67,2440.01 919.97,2420.66 "/>
   <polygon class="fil4" points="7036.05,2804.03 7071.16,2942.59 7209.75,2977.74 7071.16,3012.82 7036.05,3151.39 7000.98,3012.82 6862.36,2977.74 7000.98,2942.59 "/>
   <polygon class="fil4" points="4627.48,8101.81 4653.77,8205.56 4757.54,8231.87 4653.77,8258.14 4627.48,8361.9 4601.22,8258.14 4497.43,8231.87 4601.22,8205.56 "/>
   <polygon class="fil4" points="2761.28,9368.91 2787.96,9474.19 2893.25,9500.89 2787.96,9527.55 2761.28,9632.82 2734.64,9527.55 2629.32,9500.89 2734.64,9474.19 "/>
   <polygon class="fil4" points="3968.9,386.72 3995.76,492.72 4101.78,519.6 3995.76,546.44 3968.9,652.44 3942.07,546.44 3836.03,519.6 3942.07,492.72 "/>
   <polygon class="fil4" points="677.57,526.91 696.9,603.19 773.19,622.53 696.9,641.85 677.57,718.13 658.26,641.85 581.96,622.53 658.26,603.19 "/>
   <polygon class="fil4" points="7181.75,9007.44 7201.07,9083.72 7277.37,9103.07 7201.07,9122.38 7181.75,9198.66 7162.44,9122.38 7086.13,9103.07 7162.44,9083.72 "/>
   <path class="fil2" d="M5573.97 7799.69c8.17,-12.36 12.95,-27.16 12.95,-43.08 0,-43.27 -35.08,-78.35 -78.34,-78.35 -5.21,0 -10.29,0.54 -15.22,1.51 4.69,-12.69 7.39,-26.36 7.39,-40.67 0,-64.9 -52.61,-117.51 -117.51,-117.51 -16.84,0 -32.82,3.6 -47.3,9.98 -2.92,-40.6 -36.71,-72.65 -78.05,-72.65 -7.21,0 -14.15,1.05 -20.77,2.87 3.29,-10.83 5.1,-22.31 5.1,-34.21 0,-64.9 -52.62,-117.52 -117.52,-117.52 -53.28,0 -98.22,35.48 -112.62,84.09 -12.56,-8.56 -27.72,-13.58 -44.06,-13.58 -43.27,0 -78.35,35.08 -78.35,78.34 0,2.65 0.14,5.27 0.4,7.85l-0.4 -0.02c-64.9,0 -117.51,52.61 -117.51,117.51 0,9.34 1.2,18.38 3.26,27.08 -15.25,-7.24 -32.25,-11.42 -50.26,-11.42 -64.9,0 -117.51,52.62 -117.51,117.52 0,32.05 12.86,61.06 33.65,82.26l932.67 0z"/>
  </g>
 </g>
</svg>
