
<svg version="1.0" xmlns="http://www.w3.org/2000/svg"
 width="489.000000pt" height="489.000000pt" viewBox="0 0 489.000000 489.000000"
 preserveAspectRatio="xMidYMid meet">

<g transform="translate(0.000000,489.000000) scale(0.100000,-0.100000)"
fill="#000000" stroke="none">
<path d="M2245 4879 c-840 -68 -1598 -579 -1975 -1329 -74 -148 -75 -150 -45
-150 22 0 25 4 25 40 0 33 3 40 20 40 13 0 20 7 20 20 0 13 7 20 20 20 17 0
20 7 20 45 0 38 3 45 20 45 17 0 20 7 20 40 0 33 3 40 20 40 13 0 20 7 20 20
0 15 7 20 25 20 18 0 25 5 25 20 0 13 7 20 20 20 17 0 20 7 20 45 0 38 3 45
20 45 13 0 20 7 20 20 0 13 7 20 20 20 13 0 20 7 20 20 0 13 7 20 20 20 13 0
20 7 20 20 0 13 7 20 20 20 13 0 20 7 20 20 0 15 7 20 25 20 20 0 25 5 25 25
0 18 5 25 20 25 13 0 20 7 20 20 0 13 7 20 20 20 13 0 20 7 20 20 0 13 7 20
20 20 13 0 20 7 20 20 0 17 7 20 45 20 38 0 45 3 45 20 0 13 7 20 20 20 15 0
20 7 20 25 0 23 4 25 40 25 33 0 40 3 40 20 0 13 7 20 20 20 13 0 20 7 20 20
0 17 7 20 45 20 38 0 45 3 45 20 0 17 7 20 40 20 33 0 40 3 40 20 0 17 7 20
40 20 33 0 40 3 40 20 0 17 7 20 45 20 41 0 45 2 45 25 0 24 3 25 60 25 53 0
60 2 60 20 0 18 7 20 65 20 58 0 65 2 65 20 0 18 7 20 65 20 58 0 65 2 65 20
0 19 7 20 145 20 138 0 145 1 145 20 0 20 7 20 270 20 263 0 270 0 270 -20 0
-19 7 -20 125 -20 118 0 125 -1 125 -20 0 -18 7 -20 65 -20 58 0 65 -2 65 -20
0 -18 7 -20 60 -20 53 0 60 -2 60 -20 0 -18 7 -20 65 -20 63 0 65 -1 65 -25 0
-22 4 -25 40 -25 33 0 40 -3 40 -20 0 -17 7 -20 45 -20 38 0 45 -3 45 -20 0
-17 7 -20 40 -20 33 0 40 -3 40 -20 0 -17 7 -20 45 -20 38 0 45 -3 45 -20 0
-13 7 -20 20 -20 13 0 20 -7 20 -20 0 -17 7 -20 40 -20 36 0 40 -2 40 -25 0
-18 5 -25 20 -25 13 0 20 -7 20 -20 0 -13 7 -20 20 -20 13 0 20 -7 20 -20 0
-17 7 -20 45 -20 38 0 45 -3 45 -20 0 -13 7 -20 20 -20 13 0 20 -7 20 -20 0
-13 7 -20 20 -20 15 0 20 -7 20 -25 0 -18 5 -25 20 -25 13 0 20 -7 20 -20 0
-15 7 -20 25 -20 18 0 25 -5 25 -20 0 -13 7 -20 20 -20 13 0 20 -7 20 -20 0
-13 7 -20 20 -20 17 0 20 -7 20 -45 0 -38 3 -45 20 -45 13 0 20 -7 20 -20 0
-13 7 -20 20 -20 13 0 20 -7 20 -20 0 -15 7 -20 25 -20 23 0 25 -4 25 -40 0
-33 3 -40 20 -40 13 0 20 -7 20 -20 0 -13 7 -20 20 -20 17 0 20 -7 20 -45 0
-38 3 -45 20 -45 17 0 20 -7 20 -40 0 -33 3 -40 20 -40 17 0 20 -7 20 -45 0
-38 3 -45 20 -45 17 0 20 -7 20 -40 0 -36 3 -40 25 -40 23 0 25 -4 25 -40 0
-33 3 -40 20 -40 18 0 20 -7 20 -65 0 -58 2 -65 20 -65 18 0 20 -7 20 -85 0
-78 2 -85 20 -85 19 0 20 -7 20 -125 0 -118 1 -125 20 -125 20 0 20 -7 20
-270 0 -263 0 -270 -20 -270 -19 0 -20 -7 -20 -145 0 -138 -1 -145 -20 -145
-18 0 -20 -7 -20 -85 0 -78 -2 -85 -20 -85 -18 0 -20 -7 -20 -65 0 -58 -2 -65
-20 -65 -17 0 -20 -7 -20 -40 0 -36 -2 -40 -25 -40 -23 0 -25 -4 -25 -45 0
-38 -3 -45 -20 -45 -17 0 -20 -7 -20 -40 0 -33 -3 -40 -20 -40 -17 0 -20 -7
-20 -40 0 -33 -3 -40 -20 -40 -17 0 -20 -7 -20 -45 0 -38 -3 -45 -20 -45 -13
0 -20 -7 -20 -20 0 -13 -7 -20 -20 -20 -17 0 -20 -7 -20 -40 0 -36 -2 -40 -25
-40 -18 0 -25 -5 -25 -20 0 -13 -7 -20 -20 -20 -15 0 -20 -7 -20 -25 0 -18 -5
-25 -20 -25 -17 0 -20 -7 -20 -40 0 -33 -3 -40 -20 -40 -13 0 -20 -7 -20 -20
0 -13 -7 -20 -20 -20 -13 0 -20 -7 -20 -20 0 -15 -7 -20 -25 -20 -20 0 -25 -5
-25 -25 0 -18 -5 -25 -20 -25 -13 0 -20 -7 -20 -20 0 -13 -7 -20 -20 -20 -13
0 -20 -7 -20 -20 0 -13 -7 -20 -20 -20 -13 0 -20 -7 -20 -20 0 -13 -7 -20 -20
-20 -13 0 -20 -7 -20 -20 0 -17 -7 -20 -45 -20 -38 0 -45 -3 -45 -20 0 -13 -7
-20 -20 -20 -15 0 -20 -7 -20 -25 0 -18 -5 -25 -20 -25 -13 0 -20 -7 -20 -20
0 -17 -7 -20 -40 -20 -33 0 -40 -3 -40 -20 0 -17 -7 -20 -45 -20 -38 0 -45 -3
-45 -20 0 -13 -7 -20 -20 -20 -13 0 -20 -7 -20 -20 0 -17 -7 -20 -40 -20 -36
0 -40 -2 -40 -25 0 -23 -4 -25 -45 -25 -38 0 -45 -3 -45 -20 0 -18 -7 -20 -60
-20 -53 0 -60 -2 -60 -20 0 -15 -7 -20 -25 -20 -15 0 -25 -6 -25 -15 0 -23
211 54 395 145 392 193 712 473 954 835 350 521 482 1173 366 1801 -103 553
-398 1056 -840 1429 -100 84 -299 217 -425 283 -398 211 -878 308 -1335 271z"/>
<path d="M181 3359 c-14 -42 -14 -49 4 -49 11 0 15 11 15 40 0 48 -4 50 -19 9z"/>
<path d="M147 3266 c-4 -15 -6 -31 -2 -34 10 -10 16 6 13 35 l-3 28 -8 -29z"/>
</g>
</svg>
